<?xml version="1.0" encoding="UTF-8"?>
<svg xmlns="http://www.w3.org/2000/svg" viewBox="0 0 104 104">
  <defs>
    <filter
      id="inner-blur"
      x="24.5342"
      y="29.2656"
      width="58.7486"
      height="44.7335"
      filterUnits="userSpaceOnUse"
      color-interpolation-filters="sRGB"
    >
      <feFlood flood-opacity="0" result="BackgroundImageFix"/>
      <feBlend mode="normal" in="SourceGraphic" in2="BackgroundImageFix" result="shape"/>
      <feGaussianBlur stdDeviation="2" result="effect1_foregroundBlur"/>
    </filter>
    <linearGradient id="gradient1" x1="57.2417" y1="35" x2="1.04096" y2="80.6657" gradientUnits="userSpaceOnUse">
      <stop stop-color="#215DD2"/>
      <stop offset="1" stop-color="#79A7FF"/>
    </linearGradient>
    <linearGradient id="gradient2" x1="82.8616" y1="7.24891" x2="41.5286" y2="53.322" gradientUnits="userSpaceOnUse">
      <stop stop-color="#d0e9ff"/>
      <stop offset="1" stop-color="#FF5B58"/>
    </linearGradient>
  </defs>
  <path
    d="M35.6559+32.0001L24.0866+32.0001C17.2385+32.0001+11.2793+36.599+9.66347+43.131L0.667038+83.5091C-0.305315+87.8733+3.09227+92+7.65767+92L58.9275+92C63.4549+92+67.3734+88.9102+68.3492+84.5708L78.3223+40.2229C79.2718+36.0007+76.3133+32.0001+71.9083+32.0001L35.6559+32.0001Z"
    fill="url(#gradient1)"
  />
  <path
    d="M51.5088+12L62.1834+12L97.689+12C102.041+12+105.276+16.0007+104.338+20.2228L103.373+24.5663L36.9078+24.5663L37.2586+23.131C38.8551+16.5989+44.7428+12+51.5088+12ZM35.1123+31.913L26.6264+66.6335C25.9584+69.3667+28.0424+71.9999+30.8735+71.9999L85.1758+71.9999C89.649+71.9999+93.5205+68.9101+94.4846+64.5707L101.741+31.913L35.1123+31.913Z"
    fill="#d0e9ff"
    fill-rule="evenodd"
  />
  <path
    d="M71.5633+69.9991L79.2828+33.2656L70.6614+33.2656L36.6953+33.2656L28.6596+64.6327C27.9916+67.3659+30.0756+69.9991+32.9067+69.9991L71.5633+69.9991Z"
    fill="url(#gradient2)"
    fill-rule="evenodd"
    filter="url(#inner-blur)"
  />
</svg>
