<svg xmlns="http://www.w3.org/2000/svg" viewBox="0 0 965 686" fill="#fff"><defs><linearGradient id="cb-a" gradientTransform="rotate(21)"><stop stop-color="#2e2e79" offset="0"/><stop stop-color="#2581c4" offset=".42"/><stop stop-color="#e6d6cb" offset=".68"/><stop stop-color="#e3756a" offset=".86"/><stop stop-color="#c90c0f" offset="1"/></linearGradient></defs><path fill="url(#cb-a)" d="M32.02 31.32h902v624h-902z"/><path d="m359.76 172.39 17.93 4.02c13.593 3.693 26.883 8.977 39.87 15.85l18.68 12.06a153.02 153.02 0 0 1 21.73 19.96c10.78 12.253 19.49 25.8 26.13 40.64 7.447 17.387 12.163 35.543 14.15 54.47l.63 6.37a1.115 1.115 0 0 1-1.1 1.22l-9.74.05-24.82-.02h-98.94l-49.85.02a.443.443 0 0 0-.44.44l-.02 31.29c0 .389.321.71.71.71l32.35-.03 45.48-.08 62.99.03 20.53-.02 21.9-.1h.012a.904.904 0 0 1 .898.96c-1.047 15.02-3.77 29.62-8.17 43.8-9.207 29.7-25.653 54.39-49.34 74.07-6.63 4.87-13.34 10.01-20.23 13.91a208.49 208.49 0 0 1-20.18 9.99c-10.147 3.96-20.637 7.25-31.47 9.87a304.375 304.375 0 0 1-32.88 4.84c-13.3.96-26.423.97-39.37.03-12.267-.94-24.077-2.653-35.43-5.14l-23.44-6.96-15.52-6.58c-9.067-4.4-17.39-9.367-24.97-14.9-2.92-2.14-6.473-4.947-10.66-8.42a189.443 189.443 0 0 1-21.69-23.24c-15.653-21.773-25.553-46.027-29.7-72.76a483.111 483.111 0 0 1-2.05-14.68 1030.41 1030.41 0 0 1-.62-13.06c-2.5-62.38 20.91-121.98 76.09-155.38 12.047-7.227 24.843-12.92 38.39-17.08 19.153-5.86 38.797-9.05 58.93-9.57 3.51.02 7.16-.38 10.44-.3 15.78.43 27.75 1.15 42.79 3.72ZM543.53 178.39l21 .09 50.76-.02 11.35-.07 31.39.04 37.18-.02 20.08.05 27.18.01c12.3-.2 22.727.49 31.28 2.07 1.5.273 4.593 1.007 9.28 2.2 8.653 2.88 16.4 7.32 23.24 13.32 14.867 13.193 23.19 29.84 24.97 49.94.3 3.353.29 8.247-.03 14.68-.327 2.08-.69 4.183-1.09 6.31-4 21.293-14.95 37.653-32.85 49.08-6.12 3.913-13.13 6.68-21.03 8.3-10.153 1.733-18.9 2.603-26.24 2.61-20.1.027-40.193.037-60.28.03l-49.49.02h-29.27l-58.74.05-23.08-.09c-.48 0-.72-.24-.72-.72l-.03-115.48.07-28.45-.07-3.37v-.011a.588.588 0 0 1 .581-.589h.009l14.55.02ZM544.02 359.28l56.27.13 29.24.06 57.23-.05c23.907.053 47.82.103 71.74.15 2.513 0 6.493.417 11.94 1.25 24.24 2.92 44.15 18.52 54.28 40.5 5.533 12.467 7.71 25.277 6.53 38.43-2.36 26.467-15.103 46.307-38.23 59.52-15.23 7.27-31.17 8.23-48 8.24-9.187.007-18.377.003-27.57-.01l-36.51.01-27.66.01-60.48.11-7.48-.1-45.5-.01-10.28.12c-.66-.06-.99-.273-.99-.64a56711.3 56711.3 0 0 0-.06-95.82l-.02-50.57c0-.9.447-1.347 1.34-1.34l14.21.01Z"/></svg>